<?xml version="1.0" standalone="no"?>
<!DOCTYPE svg PUBLIC "-//W3C//DTD SVG 20010904//EN"
 "http://www.w3.org/TR/2001/REC-SVG-20010904/DTD/svg10.dtd">
<svg version="1.0" xmlns="http://www.w3.org/2000/svg"
 width="700.000000pt" height="700.000000pt" viewBox="0 0 700.000000 700.000000"
 preserveAspectRatio="xMidYMid meet">
<metadata>
Created by potrace 1.11, written by Peter Selinger 2001-2013
</metadata>
<g transform="translate(0.000000,700.000000) scale(0.100000,-0.100000)"
fill="#000000" stroke="none">
<path d="M287 6983 c-65 -22 -130 -82 -164 -150 l-27 -57 0 -3256 c0 -2751 2
-3265 14 -3314 17 -70 74 -139 146 -176 l49 -25 1295 0 1295 0 49 25 c103 53
163 159 154 274 -9 108 -65 187 -168 234 l-55 26 -1107 0 -1108 0 2 2936 3
2935 2346 0 2346 1 0 -1586 c0 -872 4 -1601 8 -1620 11 -53 39 -101 82 -141
64 -61 97 -74 193 -74 96 0 130 13 193 74 36 33 64 83 82 140 4 13 7 810 7
1771 0 1947 5 1813 -69 1898 -20 24 -60 56 -87 70 l-51 27 -2690 2 c-2444 2
-2694 0 -2738 -14z"/>
<path d="M1732 5348 c-56 -9 -125 -51 -162 -98 -125 -157 -49 -391 145 -448
30 -9 373 -12 1341 -12 1466 0 1362 -5 1454 77 156 140 112 384 -86 470 -36
15 -135 17 -1345 17 -718 1 -1324 -2 -1347 -6z"/>
<path d="M1740 3800 c-180 -31 -284 -232 -205 -394 37 -75 91 -123 173 -152
25 -9 364 -12 1360 -10 l1327 1 45 22 c99 48 163 148 163 253 0 114 -58 206
-161 257 l-57 28 -1305 0 c-718 1 -1321 -2 -1340 -5z"/>
<path d="M6573 2669 c-84 -15 -124 -45 -247 -184 -44 -50 -86 -97 -95 -105 -9
-9 -47 -51 -86 -95 -38 -44 -76 -87 -85 -96 -17 -18 -52 -56 -165 -184 -44
-50 -82 -92 -85 -95 -4 -3 -46 -50 -95 -105 -48 -55 -93 -104 -99 -110 -6 -5
-29 -30 -50 -55 -22 -25 -76 -85 -121 -135 -45 -49 -106 -117 -135 -150 -56
-62 -88 -98 -180 -200 -144 -160 -209 -233 -236 -263 l-29 -32 -102 97 c-113
109 -436 421 -577 556 -152 148 -195 172 -306 169 -130 -4 -244 -110 -266
-246 -6 -41 10 -124 33 -169 18 -36 124 -141 628 -623 33 -31 145 -138 248
-238 103 -100 208 -191 232 -204 62 -33 139 -39 211 -16 71 22 124 72 354 334
8 9 47 53 87 96 39 43 80 88 90 100 20 23 137 153 223 249 30 33 86 95 124
138 38 43 78 88 90 100 12 13 50 56 86 97 36 40 72 80 81 89 9 9 56 61 105
116 48 55 93 105 98 111 6 6 43 46 81 90 71 80 154 171 190 209 11 12 35 39
54 61 19 21 68 77 110 123 134 147 166 206 162 298 -4 86 -26 137 -84 195 -63
62 -157 92 -244 77z"/>
<path d="M1764 2299 c-107 -13 -186 -70 -231 -166 -66 -143 7 -318 156 -374
51 -19 77 -20 468 -20 486 -1 493 1 578 86 151 150 89 397 -117 464 -40 13
-759 21 -854 10z"/>
</g>
</svg>
